<svg width="721" height="292" viewBox="0 0 721 292" fill="none" xmlns="http://www.w3.org/2000/svg">
<path d="M0 144V0H264.5C283.3 3.6 287.5 24 287.5 24C288.167 49.6667 287.5 121.5 287.5 121.5C287.5 121.5 287.5 144 259.5 144H0Z" fill="#FFD600"/>
<path d="M98.5 162.5H0C17.5 177.833 61.7 216.5 98.5 248.5C125.5 271.978 162.5 288 190 288H287.5C268.333 271.167 222 230.6 190 203C158 175.4 135.5 166.5 98.5 162.5Z" fill="#FFD600"/>
<path d="M333 9H305.5V135H333V9Z" fill="#FFD600"/>
<path d="M353.5 135V24H392.5V36H365.5V74H389V85H365.5V135H353.5Z" fill="#FFD600"/>
<path d="M412.5 135V24H451V36H423.5V74H446.5V85H423.5V124H451V135H412.5Z" fill="#FFD600"/>
<path d="M470 135V24H509V36H482V74H504.5V85H482V124H509V135H470Z" fill="#FFD600"/>
<path d="M527.5 135V24H539V124H566.5V135H527.5Z" fill="#FFD600"/>
<path d="M584.5 135V24H595V135H584.5Z" fill="#FFD600"/>
<path d="M615 135V24H623V74L642 24H653L633.5 79.5L653 135H642L623 85V135H615Z" fill="#FFD600"/>
<path d="M672 135V24H710.5V36H684.5V74H706.5V85H684.5V124H710.5V135H672Z" fill="#FFD600"/>
<path d="M333 144H305.5V288C305.5 293.6 323.833 290.333 333 288V144Z" fill="#FFD600"/>
<path d="M444 187.5H415V168.5C415 165.7 409.667 164 407 163.5H399C394.6 163.5 390.5 169.167 389 172V262C389 264.8 395.667 267.167 399 268H407C412.2 267.6 414.5 263.833 415 262V240H444V265C442 280.2 423.833 286.667 415 288H392.5C370.9 288 362.5 272.667 361 265V168.5C363 149.7 382.833 144.333 392.5 144H415C433 144 441.833 160.333 444 168.5V187.5Z" fill="#FFD600"/>
<path d="M470 288V144H500.5V224.5H524V144H554.5V288H524V245H500.5V288H470Z" fill="#FFD600"/>
<path d="M581.5 288V144H609V288H581.5Z" fill="#FFD600"/>
<path d="M636.5 288V144H720.5V163.5H668V187.5H714V207.5H668V268H720.5V288H636.5Z" fill="#FFD600"/>
</svg>
