<svg width="1440" height="1024" viewBox="0 0 1440 1024" fill="none" xmlns="http://www.w3.org/2000/svg">
<path fill-rule="evenodd" clip-rule="evenodd" d="M0 70.5V0H1.75947C31.4996 25.7964 66.4842 56.4339 82.5 70.5H0ZM0 196.5V124.474C30.1074 150.577 66.1672 182.156 82.5 196.5H0ZM0 322.5V250.474C30.1074 276.577 66.1672 308.156 82.5 322.5H0ZM0 448.5V376.474C30.1074 402.577 66.1672 434.156 82.5 448.5H0ZM0 574.5V502.474C30.1074 528.577 66.1672 560.156 82.5 574.5H0ZM0 700.5V628.474C30.1074 654.577 66.1672 686.156 82.5 700.5H0ZM0 826.5V754.474C30.1074 780.577 66.1672 812.156 82.5 826.5H0ZM0 952.5V880.474C30.1074 906.577 66.1672 938.156 82.5 952.5H0ZM20.1685 1024H0V1006.47C6.53013 1012.14 13.3403 1018.05 20.1685 1024ZM308.168 1024H164.267C131.839 995.748 97.831 965.995 83 953H181.5C218.5 957 241 965.9 273 993.5C283.646 1002.68 295.878 1013.3 308.168 1024ZM596.168 1024H452.267C419.839 995.748 385.831 965.995 371 953H469.5C506.5 957 529 965.9 561 993.5C571.646 1002.68 583.878 1013.3 596.168 1024ZM884.168 1024H740.267C707.839 995.748 673.831 965.995 659 953H757.5C794.5 957 817 965.9 849 993.5C859.646 1002.68 871.878 1013.3 884.168 1024ZM1172.17 1024H1028.27C995.839 995.748 961.831 965.995 947 953H1045.5C1082.5 957 1105 965.9 1137 993.5C1147.65 1002.68 1159.88 1013.3 1172.17 1024ZM1440 1006.47V1024H1316.27C1283.84 995.748 1249.83 965.995 1235 953H1333.5C1370.5 957 1393 965.9 1425 993.5C1429.73 997.581 1434.78 1001.95 1440 1006.47ZM1440 880.474V952.5H1425C1397.5 952.5 1360.5 936.478 1333.5 913C1296.7 881 1252.5 842.333 1235 827H1333.5C1370.5 831 1393 839.9 1425 867.5C1429.73 871.581 1434.78 875.945 1440 880.474ZM1440 754.474V826.5H1425C1397.5 826.5 1360.5 810.478 1333.5 787C1296.7 755 1252.5 716.333 1235 701H1333.5C1370.5 705 1393 713.9 1425 741.5C1429.73 745.581 1434.78 749.945 1440 754.474ZM1440 628.474V700.5H1425C1397.5 700.5 1360.5 684.478 1333.5 661C1296.7 629 1252.5 590.333 1235 575H1333.5C1370.5 579 1393 587.9 1425 615.5C1429.73 619.581 1434.78 623.945 1440 628.474ZM1440 502.474V574.5H1425C1397.5 574.5 1360.5 558.478 1333.5 535C1296.7 503 1252.5 464.333 1235 449H1333.5C1370.5 453 1393 461.9 1425 489.5C1429.73 493.581 1434.78 497.945 1440 502.474ZM1440 376.474V448.5H1425C1397.5 448.5 1360.5 432.478 1333.5 409C1296.7 377 1252.5 338.333 1235 323H1333.5C1370.5 327 1393 335.9 1425 363.5C1429.73 367.581 1434.78 371.945 1440 376.474ZM1440 250.474V322.5H1425C1397.5 322.5 1360.5 306.478 1333.5 283C1296.7 251 1252.5 212.333 1235 197H1333.5C1370.5 201 1393 209.9 1425 237.5C1429.73 241.581 1434.78 245.945 1440 250.474ZM1440 124.474V196.5H1425C1397.5 196.5 1360.5 180.478 1333.5 157C1296.7 125 1252.5 86.3333 1235 71H1333.5C1370.5 75 1393 83.9 1425 111.5C1429.73 115.581 1434.78 119.945 1440 124.474ZM1297.92 0H1440V70.5H1425C1397.5 70.5 1360.5 54.4783 1333.5 31C1322.01 21.0121 1309.81 10.3747 1297.92 0ZM1009.92 0H1153.76C1183.5 25.7964 1218.48 56.4339 1234.5 70.5H1137C1109.5 70.5 1072.5 54.4783 1045.5 31C1034.01 21.0121 1021.81 10.3747 1009.92 0ZM721.916 0H865.759C895.5 25.7964 930.484 56.4339 946.5 70.5H849C821.5 70.5 784.5 54.4783 757.5 31C746.014 21.0121 733.807 10.3747 721.916 0ZM433.916 0H577.759C607.5 25.7964 642.484 56.4339 658.5 70.5H561C533.5 70.5 496.5 54.4783 469.5 31C458.014 21.0121 445.807 10.3747 433.916 0ZM289.759 0C319.5 25.7964 354.484 56.4339 370.5 70.5H273C245.5 70.5 208.5 54.4783 181.5 31C170.014 21.0121 157.807 10.3747 145.916 0H289.759ZM83 71H181.5C218.5 75 241 83.9 273 111.5C305 139.1 351.333 179.667 370.5 196.5H273C245.5 196.5 208.5 180.478 181.5 157C144.7 125 100.5 86.3333 83 71ZM83 197H181.5C218.5 201 241 209.9 273 237.5C305 265.1 351.333 305.667 370.5 322.5H273C245.5 322.5 208.5 306.478 181.5 283C144.7 251 100.5 212.333 83 197ZM371 449H469.5C506.5 453 529 461.9 561 489.5C593 517.1 639.333 557.667 658.5 574.5H561C533.5 574.5 496.5 558.478 469.5 535C432.7 503 388.5 464.333 371 449ZM757.5 197H659C676.5 212.333 720.7 251 757.5 283C784.5 306.478 821.5 322.5 849 322.5H946.5C927.333 305.667 881 265.1 849 237.5C817 209.9 794.5 201 757.5 197ZM659 71H757.5C794.5 75 817 83.9 849 111.5C881 139.1 927.333 179.667 946.5 196.5H849C821.5 196.5 784.5 180.478 757.5 157C720.7 125 676.5 86.3333 659 71ZM947 449H1045.5C1082.5 453 1105 461.9 1137 489.5C1169 517.1 1215.33 557.667 1234.5 574.5H1137C1109.5 574.5 1072.5 558.478 1045.5 535C1008.7 503 964.5 464.333 947 449ZM181.5 575H83C100.5 590.333 144.7 629 181.5 661C208.5 684.478 245.5 700.5 273 700.5H370.5C351.333 683.667 305 643.1 273 615.5C241 587.9 218.5 579 181.5 575ZM1045.5 701H947C964.5 716.333 1008.7 755 1045.5 787C1072.5 810.478 1109.5 826.5 1137 826.5H1234.5C1215.33 809.667 1169 769.1 1137 741.5C1105 713.9 1082.5 705 1045.5 701ZM659 827H757.5C794.5 831 817 839.9 849 867.5C881 895.1 927.333 935.667 946.5 952.5H849C821.5 952.5 784.5 936.478 757.5 913C720.7 881 676.5 842.333 659 827ZM181.5 827H83C100.5 842.333 144.7 881 181.5 913C208.5 936.478 245.5 952.5 273 952.5H370.5C351.333 935.667 305 895.1 273 867.5C241 839.9 218.5 831 181.5 827ZM83 449H181.5C218.5 453 241 461.9 273 489.5C305 517.1 351.333 557.667 370.5 574.5H273C245.5 574.5 208.5 558.478 181.5 535C144.7 503 100.5 464.333 83 449ZM181.5 323H83C100.5 338.333 144.7 377 181.5 409C208.5 432.478 245.5 448.5 273 448.5H370.5C351.333 431.667 305 391.1 273 363.5C241 335.9 218.5 327 181.5 323ZM371 323H469.5C506.5 327 529 335.9 561 363.5C593 391.1 639.333 431.667 658.5 448.5H561C533.5 448.5 496.5 432.478 469.5 409C432.7 377 388.5 338.333 371 323ZM757.5 575H659C676.5 590.333 720.7 629 757.5 661C784.5 684.478 821.5 700.5 849 700.5H946.5C927.333 683.667 881 643.1 849 615.5C817 587.9 794.5 579 757.5 575ZM947 323H1045.5C1082.5 327 1105 335.9 1137 363.5C1169 391.1 1215.33 431.667 1234.5 448.5H1137C1109.5 448.5 1072.5 432.478 1045.5 409C1008.7 377 964.5 338.333 947 323ZM469.5 701H371C388.5 716.333 432.7 755 469.5 787C496.5 810.478 533.5 826.5 561 826.5H658.5C639.333 809.667 593 769.1 561 741.5C529 713.9 506.5 705 469.5 701ZM371 197H469.5C506.5 201 529 209.9 561 237.5C593 265.1 639.333 305.667 658.5 322.5H561C533.5 322.5 496.5 306.478 469.5 283C432.7 251 388.5 212.333 371 197ZM469.5 71H371C388.5 86.3333 432.7 125 469.5 157C496.5 180.478 533.5 196.5 561 196.5H658.5C639.333 179.667 593 139.1 561 111.5C529 83.9 506.5 75 469.5 71ZM757.5 449H659C676.5 464.333 720.7 503 757.5 535C784.5 558.478 821.5 574.5 849 574.5H946.5C927.333 557.667 881 517.1 849 489.5C817 461.9 794.5 453 757.5 449ZM947 197H1045.5C1082.5 201 1105 209.9 1137 237.5C1169 265.1 1215.33 305.667 1234.5 322.5H1137C1109.5 322.5 1072.5 306.478 1045.5 283C1008.7 251 964.5 212.333 947 197ZM1045.5 71H947C964.5 86.3333 1008.7 125 1045.5 157C1072.5 180.478 1109.5 196.5 1137 196.5H1234.5C1215.33 179.667 1169 139.1 1137 111.5C1105 83.9 1082.5 75 1045.5 71ZM469.5 575H371C388.5 590.333 432.7 629 469.5 661C496.5 684.478 533.5 700.5 561 700.5H658.5C639.333 683.667 593 643.1 561 615.5C529 587.9 506.5 579 469.5 575ZM1045.5 827H947C964.5 842.333 1008.7 881 1045.5 913C1072.5 936.478 1109.5 952.5 1137 952.5H1234.5C1215.33 935.667 1169 895.1 1137 867.5C1105 839.9 1082.5 831 1045.5 827ZM371 827H469.5C506.5 831 529 839.9 561 867.5C593 895.1 639.333 935.667 658.5 952.5H561C533.5 952.5 496.5 936.478 469.5 913C432.7 881 388.5 842.333 371 827ZM659 323H757.5C794.5 327 817 335.9 849 363.5C881 391.1 927.333 431.667 946.5 448.5H849C821.5 448.5 784.5 432.478 757.5 409C720.7 377 676.5 338.333 659 323ZM1045.5 575H947C964.5 590.333 1008.7 629 1045.5 661C1072.5 684.478 1109.5 700.5 1137 700.5H1234.5C1215.33 683.667 1169 643.1 1137 615.5C1105 587.9 1082.5 579 1045.5 575ZM757.5 701H659C676.5 716.333 720.7 755 757.5 787C784.5 810.478 821.5 826.5 849 826.5H946.5C927.333 809.667 881 769.1 849 741.5C817 713.9 794.5 705 757.5 701ZM181.5 701H83C100.5 716.333 144.7 755 181.5 787C208.5 810.478 245.5 826.5 273 826.5H370.5C351.333 809.667 305 769.1 273 741.5C241 713.9 218.5 705 181.5 701Z" fill="#0700B0"/>
</svg>
